<svg xmlns="http://www.w3.org/2000/svg" viewBox="0 0 48 48" role="img" aria-label="Fast Lad Academy">
  <!-- The FLA mark: faceless full-face helmet — the Stig. Traced from a Flux.2
       Klein render of the worn helmet by tools/brand/trace_helmet.py. -->
  <rect width="48" height="48" rx="10" fill="#0E0E10"/>
  <g transform="translate(24 24) scale(0.0566) translate(-439.00 -565.00)"><path fill="#F5F5F3" fill-rule="evenodd" d="M407.5 910.8C386.8 907.7 360.7 901.4 347.0 896.3C336.3 892.3 315.5 882.1 305.3 875.9C286.3 864.2 262.6 842.2 252.7 827.0C245.3 815.5 233.5 791.7 226.5 774.0C216.1 747.7 205.0 713.5 202.0 698.5C201.4 695.2 198.2 687.1 194.9 680.5C191.5 673.7 187.8 664.2 186.3 658.5C183.7 648.9 183.6 647.5 183.4 621.5C183.2 587.0 181.2 566.7 177.2 560.0C174.6 555.6 174.6 555.2 174.4 535.5C174.3 524.5 173.2 499.7 172.1 480.4C170.9 459.4 170.4 444.2 170.9 442.4C173.1 434.7 181.5 424.0 185.3 424.0C188.3 424.0 190.1 420.9 193.1 411.0C202.3 379.8 222.7 339.9 242.6 314.3C250.8 303.6 272.4 282.0 284.0 272.7C297.5 261.8 312.0 252.7 330.0 243.6C363.2 226.8 397.0 219.0 435.9 219.0C484.4 219.0 523.7 229.8 564.5 254.3C592.9 271.3 612.7 288.3 635.5 315.5C644.3 326.0 655.8 344.1 664.8 361.8C674.3 380.4 677.7 388.6 684.0 407.9C687.2 417.9 689.3 422.7 690.6 423.4C700.3 428.6 705.0 433.8 707.5 442.3C708.8 446.8 708.8 451.6 706.9 488.9C705.7 513.3 705.1 535.2 705.4 541.8L706.0 553.0L702.5 559.8C699.2 566.2 699.0 567.3 697.2 586.7C695.9 601.6 695.6 609.1 696.3 615.2C698.6 637.8 693.6 663.3 682.9 682.7C680.0 688.0 677.7 694.8 674.5 706.8C667.9 732.0 657.5 758.2 641.9 789.0C625.8 820.8 619.2 830.7 602.6 847.9C569.6 881.8 519.4 905.3 467.8 910.9C456.2 912.2 416.0 912.1 407.5 910.8Z"/><path fill="#0E0E10" fill-rule="evenodd" d="M407.5 910.8C386.8 907.7 360.7 901.4 347.0 896.3C336.3 892.3 315.5 882.1 305.3 875.9C286.3 864.2 262.6 842.2 252.7 827.0C245.3 815.5 233.5 791.7 226.5 774.0C216.1 747.7 205.0 713.5 202.0 698.5C201.4 695.2 198.2 687.1 194.9 680.5C191.5 673.7 187.8 664.2 186.3 658.5C183.7 648.9 183.6 647.5 183.4 621.5C183.2 587.0 181.2 566.7 177.2 560.0C174.6 555.6 174.6 555.2 174.4 535.5C174.3 524.5 173.2 499.7 172.1 480.4C170.9 459.4 170.4 444.2 170.9 442.4C173.1 434.7 181.5 424.0 185.3 424.0C188.3 424.0 190.1 420.9 193.1 411.0C202.3 379.8 222.7 339.9 242.6 314.3C250.8 303.6 272.4 282.0 284.0 272.7C297.5 261.8 312.0 252.7 330.0 243.6C363.2 226.8 397.0 219.0 435.9 219.0C484.4 219.0 523.7 229.8 564.5 254.3C592.9 271.3 612.7 288.3 635.5 315.5C644.3 326.0 655.8 344.1 664.8 361.8C674.3 380.4 677.7 388.6 684.0 407.9C687.2 417.9 689.3 422.7 690.6 423.4C700.3 428.6 705.0 433.8 707.5 442.3C708.8 446.8 708.8 451.6 706.9 488.9C705.7 513.3 705.1 535.2 705.4 541.8L706.0 553.0L702.5 559.8C699.2 566.2 699.0 567.3 697.2 586.7C695.9 601.6 695.6 609.1 696.3 615.2C698.6 637.8 693.6 663.3 682.9 682.7C680.0 688.0 677.7 694.8 674.5 706.8C667.9 732.0 657.5 758.2 641.9 789.0C625.8 820.8 619.2 830.7 602.6 847.9C569.6 881.8 519.4 905.3 467.8 910.9C456.2 912.2 416.0 912.1 407.5 910.8ZM475.5 899.0C490.6 896.6 506.5 892.6 521.0 887.4C547.9 877.7 578.3 857.8 601.0 835.0C618.1 817.9 630.2 799.4 643.3 770.5C650.0 755.8 659.2 731.3 658.8 729.5C658.6 728.7 655.7 731.7 652.2 736.1C646.1 743.9 645.8 744.1 643.9 742.4C642.0 740.7 642.0 740.6 644.4 737.6C645.7 735.9 649.5 730.5 653.0 725.5C656.4 720.5 659.6 716.3 659.9 716.0C660.4 715.6 663.7 708.0 667.3 698.9C667.9 697.5 668.0 695.6 667.7 694.7C667.2 693.4 664.5 695.6 655.8 704.3C647.0 713.1 641.2 717.8 630.0 725.3C604.3 742.3 583.5 752.5 557.6 760.9C516.0 774.4 483.8 779.7 439.0 780.7C399.9 781.5 375.6 779.1 342.6 771.1C307.1 762.5 278.5 751.3 253.8 736.4C238.9 727.4 230.1 720.3 217.4 707.0C215.0 704.6 212.8 702.9 212.4 703.3C211.6 704.0 214.7 715.1 215.9 716.0C217.8 717.3 220.9 724.0 221.5 727.9C222.1 731.7 222.0 732.2 220.6 731.7C218.1 730.7 218.6 733.5 223.4 747.6C240.2 796.7 259.3 826.2 290.6 851.2C322.8 877.0 363.9 894.0 407.5 899.4C426.5 901.8 426.6 901.8 445.0 901.4C456.0 901.2 467.3 900.3 475.5 899.0ZM347.6 862.8C346.8 861.5 343.8 853.6 340.8 845.1C336.6 832.8 334.9 829.0 332.3 826.5C328.6 823.0 328.3 821.8 330.4 820.1C331.5 819.1 332.5 819.2 334.8 820.4C339.0 822.6 341.3 825.9 344.0 833.2C345.2 836.7 347.8 843.5 349.7 848.4C353.4 858.0 353.8 864.2 350.8 864.8C349.9 865.0 348.5 864.1 347.6 862.8ZM512.7 864.3C511.2 862.9 512.2 856.9 515.9 845.5C519.9 833.0 521.9 828.0 522.9 828.0C525.3 828.1 526.4 830.3 526.1 834.7C525.9 839.4 518.9 861.2 516.8 863.7C515.7 865.1 513.7 865.4 512.7 864.3ZM543.5 816.0C542.7 813.5 543.4 812.4 547.1 810.4C550.5 808.7 555.1 808.8 555.7 810.7C556.1 811.7 546.7 818.0 544.8 818.0C544.4 818.0 543.9 817.1 543.5 816.0ZM564.6 802.2C563.8 800.8 570.0 796.8 572.1 797.3C573.1 797.6 574.0 797.5 574.0 797.2C574.1 795.4 575.8 794.0 577.3 794.6C579.7 795.5 579.4 797.0 577.0 796.5C575.6 796.2 574.8 796.8 574.4 798.6C574.0 799.9 573.0 801.5 572.0 802.0C569.7 803.2 565.3 803.3 564.6 802.2ZM590.7 787.4C589.6 786.2 592.0 783.1 593.5 783.6C595.5 784.4 595.4 786.6 593.4 787.4C591.5 788.1 591.5 788.1 590.7 787.4ZM400.6 757.0C410.0 754.6 418.6 750.5 425.8 745.0C428.7 742.8 431.8 741.0 432.6 741.0C433.5 741.0 437.0 743.1 440.3 745.6C458.8 759.5 475.7 762.0 511.5 756.0C521.4 754.4 538.0 751.7 548.5 750.0C572.0 746.2 582.1 744.0 582.7 742.3C585.3 735.5 571.6 723.7 554.7 718.1C539.2 713.1 527.3 711.5 494.0 710.1L472.5 709.2L463.0 704.6C451.0 698.8 444.8 697.6 429.0 698.3C415.5 698.8 410.8 700.0 399.0 706.0C392.5 709.3 392.4 709.3 372.6 710.1C361.6 710.5 350.1 711.2 347.1 711.5C332.9 713.1 317.4 717.2 308.4 721.8C297.5 727.4 286.9 739.7 289.9 743.4C290.6 744.2 292.8 745.2 294.9 745.6C296.9 745.9 301.0 746.9 304.0 747.6C307.0 748.4 319.2 750.6 331.0 752.5C342.8 754.4 355.6 756.6 359.5 757.4C370.6 759.6 391.1 759.4 400.6 757.0ZM661.8 427.4C662.4 427.2 663.0 425.5 663.0 423.7C663.0 420.8 663.5 420.0 665.9 419.0C669.5 417.6 670.6 418.1 671.5 421.7C671.8 423.3 672.9 425.3 673.7 426.2C675.6 428.3 679.8 428.6 680.6 426.7C681.2 425.0 676.8 409.9 671.8 397.0C655.4 354.3 628.1 314.1 598.6 289.1C572.1 266.7 544.8 251.4 512.7 241.1C486.1 232.6 462.1 229.5 429.7 230.3C400.4 231.0 383.3 233.9 357.0 242.6C308.8 258.6 264.7 292.9 235.5 337.0C226.0 351.4 217.7 366.3 212.5 378.5C206.6 392.3 198.2 417.1 197.4 423.4L196.7 428.2L199.6 427.8C201.9 427.6 202.9 426.6 204.7 422.8C207.4 417.1 208.3 416.5 211.4 418.5C213.2 419.7 214.0 421.2 214.2 423.8L214.5 427.5L371.0 428.0C521.7 428.5 659.1 428.3 661.8 427.4Z"/><path fill="#FF6B00" fill-rule="evenodd" d="M359.5 757.4C355.6 756.6 342.8 754.4 331.0 752.5C319.2 750.6 307.0 748.4 304.0 747.6C301.0 746.9 296.9 745.9 294.9 745.6C292.8 745.2 290.6 744.2 289.9 743.4C286.9 739.7 297.5 727.4 308.4 721.8C317.4 717.2 332.9 713.1 347.1 711.5C350.1 711.2 361.6 710.5 372.6 710.1C392.4 709.3 392.5 709.3 399.0 706.0C410.8 700.0 415.5 698.8 429.0 698.3C444.8 697.6 451.0 698.8 463.0 704.6L472.5 709.2L494.0 710.1C527.3 711.5 539.2 713.1 554.7 718.1C571.6 723.7 585.3 735.5 582.7 742.3C582.1 744.0 572.0 746.2 548.5 750.0C538.0 751.7 521.4 754.4 511.5 756.0C475.7 762.0 458.8 759.5 440.3 745.6C437.0 743.1 433.5 741.0 432.6 741.0C431.8 741.0 428.7 742.8 425.8 745.0C412.7 755.0 399.2 759.1 379.6 758.9C372.4 758.8 363.4 758.1 359.5 757.4Z"/></g>
</svg>
